#N canvas 913 129 672 606 10;
#X declare -lib mrpeach;
#X msg 301 250 devices;
#X msg 387 185 open 6 \, baud 57600;
#X msg 266 190 close;
#X obj 163 362 print osc;
#X obj 170 245 o.io.slipserial;
#X msg 322 321 /echo 192 1.5;
#X obj 301 30 metro 100;
#X obj 299 4 tgl 15 0 empty empty empty 17 7 0 10 -262144 -1 -1 0 1
;
#X obj 295 65 counter 100;
#X obj 302 95 / 100;
#X floatatom 352 92 5 0 0 0 - - -;
#X msg 305 119 /echo 192 \$1;
#X obj 57 199 length;
#X floatatom 56 239 5 0 0 0 - - -;
#X obj 291 400 tof/to_ascii_code;
#X obj 249 448 print;
#X obj 318 362 list split 1;
#X obj 411 468 list append;
#X connect 0 0 4 1;
#X connect 1 0 4 1;
#X connect 2 0 4 1;
#X connect 5 0 16 0;
#X connect 6 0 8 0;
#X connect 7 0 6 0;
#X connect 8 0 9 0;
#X connect 8 0 10 0;
#X connect 9 0 11 0;
#X connect 12 0 13 0;
#X connect 14 0 15 0;
#X connect 14 0 17 0;
#X connect 16 0 14 0;
#X connect 16 1 17 1;
