#N canvas 831 109 904 748 10;
#X obj 144 307 tof/to_ascii_code;
#X obj 147 282 list split 1;
#X obj 259 362 list append;
#X msg 147 248 /echo 1 2 3 192 219 220;
#X msg 310 522 devicename /dev/tty.usbserial-A5002rKU \, pollintervall
1;
#X obj 257 578 comport;
#X obj 261 417 mrpeach/slipenc 1500;
#X text 389 418 1500 : maximum allowable packet size;
#X connect 0 0 2 0;
#X connect 1 0 0 0;
#X connect 1 1 2 1;
#X connect 2 0 6 0;
#X connect 3 0 1 0;
#X connect 4 0 5 0;
#X connect 6 0 5 0;
